<?xml version="1.0" encoding="UTF-8"?>
<svg viewBox="0 0 521 201" xmlns="http://www.w3.org/2000/svg">
 <g transform="matrix(.94591 0 0 .95558 225.91 -210.22)" fill-rule="evenodd" stroke="#000" stroke-width="1.0518">
  <path d="m206.71 337.58c-4.3303 21.793-21.674 53.811-44.153 67.298-6.4842 3.8906-40.947 16.759-48.367 18.219-38.507 7.579-48.423 6.439-81.281 5.6375-38.258-0.93321-68.141-7.178-100.31-20.047-42.955-17.182-78.795-35.344-109.74-67.531-14.273-14.847-27.347-28.755-32.897-41.287-6.3057-14.237-7.2283-15.556-14.069-30.952-5.1354-11.558-9.0532-26.577-13.656-47.584-0.65393-2.9847 29.176 15.911 43.82 21.892 11.739 4.7948 46.486 13.525 66.31 16.085 14.259 1.8413 42.136 0.07519 52.712-2.5688 14.541-3.6351 35.717-10.467 47.204-16.211 17.15-8.5752 20.624-7.3081 39.101-11.927 22.197-5.5493 54.428-5.3863 75.973 0 18.678 4.6695 25.87 4.9113 48.505 14.872 13.592 5.9814 25.639 12.922 42.305 31.478 15.195 16.918 23.434 35.193 29.312 51.044 39.538 13.93 83.478 40.461 103.44 48.585-1.7912 7.4448-4.5887 24.227-3.4389 34.492-4.273-23.952-60.962-65.275-100.77-71.496z"/>
  <path d="m192.36 329.8c-14.403-4.591-37.848-14.682-60.539-20.716-37.959-10.095-65.394-10.357-77.372-9.194-46.27 4.4931-79.262 18.404-89.65 20.12-28.57 4.7181-65.418 4.2565-79.977-0.59971-34.825-11.616-37.455-14.95-58.213-27.71-21.399-13.154-35.108-29.015-53.703-52.572 15.644 13.005 32.392 33.739 45.845 42.061 21.279 13.163 37.081 22.961 55.931 29.612 14.945 5.2732 36.713 6.896 54.855 5.8686 27.085-1.534 47.965-6.2711 60.245-10.033 21.268-6.5161 26.515-8.4526 47.337-11.927 26.184-4.3696 21.531-3.134 43.714-2.0591 25.542 1.2377 34.264 3.9576 58.197 10.186 17.71 4.6087 34.295 10.164 55.447 18.297-0.50673 7.16-1.3405 2.0413-2.1157 8.6686z" fill="#fff"/>
  <path d="m173.72 329.3c7.8917 2.1764 2.6668 0.73756 5.4021 1.6646 0.20158 10.844-2.719 13.119-7.579 24.159-6.9666 15.825-19.304 27.031-34.138 36.231-15.133 9.3849-31.205 18.645-57.837 32.386 20.448-13.31 44.987-26.701 63.73-41.516 12.414-9.8123 16.485-16.59 19.418-21.877 8.1441-14.682 8.8698-20.56 11.004-31.047z" fill="#fff"/>
  <path d="m120.76 312.22c7.7862 2.528 2.7239-1.2127 5.4149-0.16395-0.28484 10.842-3.3973 15.053-8.7474 25.864-7.6692 15.497-27.369 30.585-42.601 39.111-15.539 8.6969-35.648 21.27-63.274 34.207 23.046-14.402 52.608-29.912 71.996-43.872 12.841-9.2458 21.66-19.473 24.826-24.623 8.7942-14.302 9.7827-20.142 12.385-30.522z" fill="#fff"/>
  <path d="m52.605 306.2c4.7386-0.51905 3.6177-1.4038 6.22-0.95974-0.64199 9.6762-10.404 27.698-15.733 34.631-5.8004 7.5456-11.202 10.853-18.023 15.549-23.175 15.956-31.622 17.685-36.672 19.684-21.158 8.3735-27.176 10.671-60.132 21.881 25.149-10.322 44.519-18.895 67.496-29.014 4.5434-2.0009 8.8813-4.6778 22.337-13.29 6.332-4.0526 17.851-12.829 23.593-21.24 8.044-11.784 8.5853-17.138 10.913-27.24z" fill="#fff"/>
  <path d="m-26.876 323.03c4.8528-0.31038 4.9835-1.3522 7.6413-1.3652-7.1565 10.26-7.4376 13.362-16.898 20.846-17.186 13.594-32.198 17.519-43.826 18.276-20.719 1.3488-38.292 1.3323-68.826-5.2092 27.602 3.6591 35.65 4.4691 65.467 2.8541 12.021-0.65112 25.64-5.9523 32.629-11.131 13.49-9.9953 18.223-15.145 23.814-24.271z" fill="#fff"/>
  <path d="m168.38 307.1c5.4989 1.4751 3.4691 1.1594 5.3751 0.51342 0.14046-7.5563-2.585-11.505-5.9714-19.198-4.8544-11.027-13.451-18.835-23.788-25.246-10.545-6.5394-21.744-12.992-40.301-22.566 14.249 9.2748 31.347 18.605 44.408 28.928 8.65 6.8372 11.487 11.56 13.53 15.244 5.6749 10.23 5.26 15.017 6.7469 22.324z" fill="#fff"/>
  <path d="m109.47 292.55c5.4989 0.3245 3.0089 1.6196 4.9148 0.97367 0.14046-7.5563-2.3548-11.965-5.7413-19.658-4.8544-11.027-13.451-18.835-23.788-25.246-10.545-6.5394-21.744-12.992-40.301-22.566 14.249 9.2748 31.347 18.605 44.408 28.928 8.65 6.8372 11.487 11.56 13.53 15.244 5.6749 10.23 5.4901 15.017 6.977 22.324z" fill="#fff"/>
  <path d="m57.711 288.25c4.9647-0.5153 1.9805-0.06261 5.6033-0.07765-1.0408-7.4856-3.9839-8.7781-8.5297-15.848-6.5162-10.134-16.226-16.505-27.437-21.223-11.436-4.8132-23.505-9.4386-43.33-15.999 15.522 6.9368 33.867 13.484 48.379 21.642 9.6112 5.4031 13.151 9.6252 15.744 12.945 7.2023 9.2192 6.9604 11.575 9.5697 18.561z" fill="#fff"/>
  <path d="m9.3568 296.72c4.5809-2.9576 3.5588-0.25073 4.8737-1.2905-2.0026-5.9681-4.446-8.2352-9.2541-13.324-6.8922-7.2949-20.927-12.767-30.984-13.995-10.332-1.2621-25.011-4.1278-40.931-8.2176 13.858 6.6024 34.613 9.0858 47.415 12.097 2.015 0.47396 12.303 4.7643 17.965 9.44 7.9 6.5229 7.7045 9.9729 10.914 15.291z" fill="#fff"/>
  <path d="m-56.872 314c4.6144-1.2726 2.71 0.31952 4.3094-0.22252 0.11787-6.3408-1.5898-7.271-4.4316-13.726-4.0735-9.2535-11.287-15.806-19.961-21.185-8.8486-5.4876-20.547-8.8312-31.287-16.175 9.4253 10.084 23.774 12.851 34.733 21.514 7.2586 5.7374 9.6393 9.7006 11.354 12.792 4.7621 8.5849 4.0357 10.871 5.2835 17.003z" fill="#fff"/>
 </g>
</svg>
