<?xml version="1.0" encoding="UTF-8"?>
<svg viewBox="0 0 522 522" xmlns="http://www.w3.org/2000/svg" xmlns:xlink="http://www.w3.org/1999/xlink">
 <defs>
  <linearGradient id="q" x1="2.2843" x2=".1266" y1="-1.801" y2=".88631" xlink:href="#a"/>
  <linearGradient id="r" x1="2.2441" x2=".10638" y1="-1.2563" y2=".94126" xlink:href="#m"/>
  <linearGradient id="p" x1="1.0306" x2="-.80432" y1=".41364" y2=".41287">
   <stop stop-color="#1a1c1a" offset="0"/>
   <stop stop-color="#c3c6c6" offset="1"/>
  </linearGradient>
  <linearGradient id="u" x1="1.5479" x2=".1266" y1="-.3818" y2=".88631" xlink:href="#a"/>
  <linearGradient id="s" x1=".50007" x2=".14673" y1="1.2058" y2=".50009" xlink:href="#o"/>
  <linearGradient id="t" x1=".4995" x2=".14625" y1="1.2259" y2=".50832" xlink:href="#o"/>
  <linearGradient id="v" x1="-.22814" x2=".82798" y1="1.1001" y2=".19626" xlink:href="#a"/>
  <linearGradient id="n" x1=".72027" x2=".10638" y1="-.004656" y2=".94126" xlink:href="#m"/>
  <linearGradient id="o">
   <stop stop-color="#18181a" offset="0"/>
   <stop stop-color="#18181a" stop-opacity="0" offset="1"/>
  </linearGradient>
  <linearGradient id="a">
   <stop offset="0"/>
   <stop stop-opacity="0" offset="1"/>
  </linearGradient>
  <linearGradient id="m">
   <stop stop-color="#373737" offset="0"/>
   <stop stop-opacity="0" offset="1"/>
  </linearGradient>
  <radialGradient id="w" cx="182.23" cy="468.34" r="120.47" gradientTransform="matrix(.98756 -2.3941 1.229 .50696 -641.88 424.32)" gradientUnits="userSpaceOnUse">
   <stop offset="0"/>
   <stop stop-color="#1b140f" offset="1"/>
  </radialGradient>
 </defs>
 <path d="m441.49 255.24a80.638 80.013 0 1 1 -161.28 0 80.638 80.013 0 1 1 161.28 0z" stroke-width="0"/>
 <g fill-rule="evenodd">
  <path d="m120.42 49.402l64.926 1.9285 1.285 12.214 54.641-0.6428 2.571 119.57h12.857l-4.5-124.71 25.07-16.714v-20.57l-158.78 1.9285 1.928 26.999z" fill="#666"/>
  <path d="m130.74 113.95c1.7256-4.314 14.668-21.57 14.668-21.57l3.0198-5.1769-5.6082-25.022 3.4512-8.1967 5.1768-4.3141 20.707-3.8826 6.0397 6.4711v10.354l2.5884 9.9223-3.8826 1.7256v4.7454l-0.4314 4.7455-4.7455 3.4512-2.5884 1.7256 0.8628 12.511 6.9025 12.942 10.785 6.4711 16.393 10.785 4.314 4.3141v10.354l12.511-24.59 3.8826-3.4513 3.8826 1.2942 1.2942 3.4513-4.7455 10.354-0.4314 9.0595 2.5884 2.157 5.6082 4.7455 9.9223 17.256 9.4909 0.4314 10.354-15.962 9.4909 6.0397-7.3339 12.942 2.5884 1.2942 17.256-11.217 3.4512 48.317-59.102-0.4314-47.023-73.77-52.2-13.805 0.8628-6.4711z" fill="#434345"/>
  <path d="m152.94 257.08l76.331 29.584 160.5 0.7407 47.347-71.41s12.085-41.537-0.65979-66.798c-4.3527-8.627-11.913-11.349-21.507-12.505-22.01-2.651-80.063-6.934-130.27-6.6862 1.0871 17.411 4.3275 51.376 4.4083 77.869-16.261 0.7746-43.048 1.236-49.858 0.90451-11.707-23.742-36.172-71.233-51.298-83.264-22.55-3.2233-67.78-8.5035-89.95-7.739-20.303 0.70004-55.9-4.5677-66.804 11.087-5.976 8.5802-0.86676 15.105-5.1359 24.65-4.1955 9.3804-22.826 25.538-22.826 25.538l39.857 21.434 109.87 56.594z" fill="#f00" stroke-width="1.051"/>
  <path d="m288.64 151.49l149.74 3.5639s1.1252 1.975 1.7528 6.9425c-6.7774 0-151.09-0.93829-151.09-0.93829l-0.3987-9.5681z" stroke="#000"/>
  <path d="m221.55 2.4082c-41.865-0.07913-85.704 1.6143-98.406 5.2188-8.4593 2.4004-11.674 17.168-11.674 17.168l-8.6695 94.245c31.252 2.493 81.677 5.2622 86.969 9.6181 18.847 15.515 50.031 83.344 50.031 83.344h53.406l-8.9062-173.44 9.875-7.6875 2.9375-10.796s-13.202-13.068-18.756-13.495c-16.54-1.2725-31.687-4.1305-56.806-4.178zm-96.469 28l57.781 0.6562s0.51974 8.1258 1.4375 92.625c-5.7804-2.4936-34.516-5.1001-62.812-7.5938l3.5938-85.688zm149.72 0.4375l10.719 175.91-47.312 0.0625s-22.496-52.981-47.188-79.75l-1.7188-95.625 85.5-0.5938z" fill="#1a1a1a" stroke-width=".966"/>
  <path d="m1.1187 181.7c1.0495-4.8107 8.4241-13.019 16.082-21.443 7.6582-8.4241 30.062-32.46 52.842-36.76 30.843-5.8213 80.496 1.0366 105.68 3.8291 4.0464 0.44859 9.9114 1.1992 13.019 3.8291 14.772 12.5 39.047 56.817 50.544 83.475 6.9566 16.129-9.1899 72.753-9.1899 72.753l-76.582-29.188-124.06-63.477-16.087-11.476s-4.0861 2.2202-5.9706 2.0413c-2.159-0.20505-6.7399-1.4657-6.2777-3.5846z" fill="url(#w)"/>
  <path d="m289.44 163.65h151.3" fill="none" stroke="#000"/>
  <path d="m333.69 288.04c0-7.1733-0.47073-32.854 2.2072-43.592 3.819-15.314 16.944-35.081 28.142-47.462 5.0607-5.5953 23.849-17.181 30.806-20.13 18.957-8.0356 47.069-4.3983 49.183-3.8699 0 0 1.1765-3.583-5.4961-4.6866-10.401-1.7202-34.659-0.62826-49.11 2.2072-9.4548 1.8551-31.147 12.775-41.672 22.33-14.421 13.092-28.047 36.178-32.033 50.551-1.4894 5.3706-4.1713 24.182-3.5466 40.789 6.342 1.089 22.072 7.7252 22.072 7.7252" fill="#7f0000"/>
  <path d="m111.66 26.071l186.22-4.9005s-5.419-8.5234-8.167-10.89c-4.318-3.7184-11.187-8.4605-16.88-8.712-36.052-1.5927-86.667-2.7528-123.6 0.5445-9.416 0.84057-23.822-0.66358-31.037 5.445-4.495 3.8059-6.534 18.513-6.534 18.513z" fill="#f00"/>
  <path d="m85.44 118.26l7.3339-76.359 20.707-15.962 0.8628-12.942-16.393-0.8628-0.8628 12.511 1.7256-1.2942-9.4909 5.6083-4.7455 0.2157-0.4314 10.785 4.7455 0.6471" fill="#18181a" stroke="#000"/>
  <path d="m303.3 47.512l-2.157 4.7454-3.02 163.5s1.003 3.786 2.588 4.745c2.217 1.342 6.434 1.81 8.628 0.43199 1.374-0.862 2.589-4.746 2.589-4.746l2.588-163.07-1.725-4.7454v-15.962s-2.504-2.3495-3.883-2.5884c-1.577-0.2733-5.177 1.2942-5.177 1.2942l-0.431 16.393z" fill="url(#p)"/>
 </g>
 <g fill-rule="evenodd">
  <g fill="#3f3f3f">
   <path d="m121.5 116.15l3.6034-85.684 57.783 0.6679s0.49887 8.0972 1.4166 92.596c-5.7804-2.4936-34.506-5.0868-62.803-7.5805z" stroke-width=".919"/>
   <path d="m191.15 127.1l-1.7217-95.614 85.493-0.5801 10.709 175.88-47.32 0.0611s-22.469-52.981-47.161-79.75z" stroke-width="1.022"/>
   <path d="m93.206 41.904l-7.7653 75.496 17.688 0.4314 8.6281-89.732" stroke="#000"/>
  </g>
  <g stroke="#ccc">
   <path d="m96.657 23.785s-4.8907 0.32125-4.5297-3.2355c0.40218-3.9628-0.2455-3.9454 0.2157-5.6083 0.86282-3.1109 5.1768-3.0198 5.1768-3.0198l-0.8628 11.864z" fill="url(#s)" stroke-width=".3"/>
   <path d="m83.73 40.311s-3.6193 0.53848-3.384-3.0354c0.26216-3.982-0.16002-3.9644 0.14061-5.6353 0.56241-3.1259 3.3744-3.0344 3.3744-3.0344l-0.131 11.705z" fill="url(#t)" stroke-width=".243"/>
  </g>
 </g>
 <g stroke-width="0">
  <g fill="#1a1a1a">
   <path d="m225.71 248.86a112.86 112.86 0 1 1 -225.71 0 112.86 112.86 0 1 1 225.71 0z"/>
   <path d="m522 268.87a90 90 0 1 1 -180 0 90 90 0 1 1 180 0z"/>
  </g>
  <path d="m177.54 249.4a65.022 65.022 0 1 1 -130.04 0 65.022 65.022 0 1 1 130.04 0z" fill="#4c4c4c"/>
  <path d="m483.55 269.63a50.138 50.138 0 1 1 -100.28 0 50.138 50.138 0 1 1 100.28 0z" fill="#7f7f7f"/>
  <path d="m166.15 248.26a53.633 53.633 0 1 1 -107.27 0 53.633 53.633 0 1 1 107.27 0z"/>
  <path d="m466.75 271.04a40.457 42.165 0 1 1 -80.914 0 40.457 42.165 0 1 1 80.914 0z"/>
 </g>
 <path d="m84.044 197.01s-0.68182 7.5153 6.1517 7.5153 53.299 5.2452 53.299 5.2452l7.7477-5.4622 11.387 21.175-5.0153 4.7881-5.9219 48.054 4.1037 6.3816-9.1114 9.1113-9.1114-4.5557-58.54-6.1492-8.6568 2.7324-9.1114-11.389 7.0634-6.1594 6.3764-49.653-5.692-9.7932 15.031-11.841z" fill="#ff0" fill-rule="evenodd"/>
 <g stroke-width="2.104">
  <path d="m170.48 248.41a57.686 57.686 0 1 1 -115.37 0 57.686 57.686 0 1 1 115.37 0z" fill="none" stroke="url(#n)"/>
  <path d="m172.91 248.68a60.388 60.388 0 1 1 -120.78 0 60.388 60.388 0 1 1 120.78 0z" fill="#3f3f3f" stroke="url(#n)"/>
  <path d="m140.31 245.23a27.063 27.063 0 1 1 -54.126 0 27.063 27.063 0 1 1 54.126 0z" fill="url(#q)"/>
 </g>
 <path d="m129.5 245.15a16.705 16.705 0 1 1 -33.41 0 16.705 16.705 0 1 1 33.41 0z" fill="none" stroke="url(#r)" stroke-width="20.268"/>
 <path d="m413.34 237.26l32.434 5.2954 9.2669-3.9715 9.9288 11.253-8.605 7.2811-5.2953 33.758 5.9573 10.591-7.2811 8.605-7.943-3.9715-37.73-5.2953-5.9573 4.6334-9.2669-13.238 1.9858-6.6192 7.2811-39.715-3.9715-4.6335 13.9-9.9288 5.2954 5.9573z" fill="#ff0" fill-rule="evenodd"/>
 <g stroke="#000" stroke-width="2.144">
  <path d="m472.3 270.85a43.007 43.148 0 1 1 -86.014 0 43.007 43.148 0 1 1 86.014 0z" fill="none"/>
  <path d="m475.18 270.49a44.595 44.736 0 1 1 -89.189 0 44.595 44.736 0 1 1 89.189 0z" fill="#3f3f3f"/>
 </g>
 <g stroke-width="2.104">
  <path d="m450.58 270.53a27.063 27.063 0 1 1 -54.126 0 27.063 27.063 0 1 1 54.126 0z" fill="url(#u)"/>
  <path d="m442.86 271.66a22.402 22.402 0 1 1 -44.804 0 22.402 22.402 0 1 1 44.804 0z" fill="#333"/>
  <path d="m434.18 271.82a14.206 14.206 0 1 1 -28.412 0 14.206 14.206 0 1 1 28.412 0z" fill="url(#v)"/>
  <path d="m435.31 269.57a13.403 13.403 0 1 1 -26.805 0 13.403 13.403 0 1 1 26.805 0z" fill="#3f3f3f"/>
 </g>
</svg>
